HIERARCHY
ROOT Hips
{
	OFFSET 0.000000 0.000000 0.000000
	CHANNELS 6 Xposition Yposition Zposition Zrotation Yrotation Xrotation 
	JOINT Spine1
	{
		OFFSET -0.013727 5.003761 -0.053727
		CHANNELS 3 Zrotation Yrotation Xrotation
		JOINT Spine2
		{
			OFFSET -0.000000 7.125303 -0.029825
			CHANNELS 3 Zrotation Yrotation Xrotation
			JOINT Chest
			{
				OFFSET -0.000001 7.550064 -0.815971
				CHANNELS 3 Zrotation Yrotation Xrotation
				JOINT Neck1
				{
					OFFSET -0.181676 26.311296 -0.553348
					CHANNELS 3 Zrotation Yrotation Xrotation
					JOINT Neck2
					{
						OFFSET -0.000003 7.709400 2.302585
						CHANNELS 3 Zrotation Yrotation Xrotation
						JOINT Head
						{
							OFFSET -0.000005 6.128913 1.953709
							CHANNELS 3 Zrotation Yrotation Xrotation
							JOINT HeadEnd
							{
								OFFSET 0.003598 16.065401 -1.835379
								CHANNELS 3 Zrotation Yrotation Xrotation
								End Site
								{
									OFFSET 0.000000 0.000000 0.000000
								}
							}
							JOINT Jaw
							{
								OFFSET 0.002637 0.475591 3.094941
								CHANNELS 3 Zrotation Yrotation Xrotation
								End Site
								{
									OFFSET 0.000000 0.000000 0.000000
								}
							}
							JOINT LeftEye
							{
								OFFSET 3.206381 5.380207 7.586883
								CHANNELS 3 Zrotation Yrotation Xrotation
								End Site
								{
									OFFSET 0.000000 0.000000 0.000000
								}
							}
							JOINT RightEye
							{
								OFFSET -3.222440 5.361868 7.558233
								CHANNELS 3 Zrotation Yrotation Xrotation
								End Site
								{
									OFFSET 0.000000 0.000000 0.000000
								}
							}
						}
					}
				}
				JOINT LeftShoulder
				{
					OFFSET 1.621652 23.237164 5.113413
					CHANNELS 3 Zrotation Yrotation Xrotation
					JOINT LeftArm
					{
						OFFSET 14.919845 0.000000 -5.502326
						CHANNELS 3 Zrotation Yrotation Xrotation
						JOINT LeftForeArm
						{
							OFFSET 28.739309 0.000003 -0.002588
							CHANNELS 3 Zrotation Yrotation Xrotation
							JOINT LeftHand
							{
								OFFSET 27.093979 -0.000003 0.002609
								CHANNELS 3 Zrotation Yrotation Xrotation
								JOINT LeftHandThumb1
								{
									OFFSET 2.276480 -1.392045 3.191413
									CHANNELS 3 Zrotation Yrotation Xrotation
									JOINT LeftHandThumb2
									{
										OFFSET 4.012841 -1.828126 1.641656
										CHANNELS 3 Zrotation Yrotation Xrotation
										JOINT LeftHandThumb3
										{
											OFFSET 2.798516 0.000001 -0.000004
											CHANNELS 3 Zrotation Yrotation Xrotation
											JOINT LeftHandThumbEnd
											{
												OFFSET 3.180792 -0.000002 0.000003
												CHANNELS 3 Zrotation Yrotation Xrotation
												End Site
												{
													OFFSET 0.000000 0.000000 0.000000
												}
											}
										}
									}
								}
								JOINT LeftHandIndex1
								{
									OFFSET 3.247553 -0.531998 2.296169
									CHANNELS 3 Zrotation Yrotation Xrotation
									JOINT LeftHandIndex2
									{
										OFFSET 6.364579 0.012062 0.178600
										CHANNELS 3 Zrotation Yrotation Xrotation
										JOINT LeftHandIndex3
										{
											OFFSET 3.662366 0.000001 -0.000000
											CHANNELS 3 Zrotation Yrotation Xrotation
											JOINT LeftHandIndex4
											{
												OFFSET 2.329243 0.000003 0.000004
												CHANNELS 3 Zrotation Yrotation Xrotation
												JOINT LeftHandIndexEnd
												{
													OFFSET 2.759619 -0.180539 -0.113023
													CHANNELS 3 Zrotation Yrotation Xrotation
													End Site
													{
														OFFSET 0.000000 0.000000 0.000000
													}
												}
											}
										}
									}
								}
								JOINT LeftHandMiddle1
								{
									OFFSET 3.163499 0.240982 1.000332
									CHANNELS 3 Zrotation Yrotation Xrotation
									JOINT LeftHandMiddle2
									{
										OFFSET 6.190778 -0.259276 -1.002548
										CHANNELS 3 Zrotation Yrotation Xrotation
										JOINT LeftHandMiddle3
										{
											OFFSET 4.356522 -0.000006 0.000000
											CHANNELS 3 Zrotation Yrotation Xrotation
											JOINT LeftHandMiddle4
											{
												OFFSET 2.996875 -0.000007 0.000001
												CHANNELS 3 Zrotation Yrotation Xrotation
												JOINT LeftHandMiddleEnd
												{
													OFFSET 2.304294 -0.294571 -0.031740
													CHANNELS 3 Zrotation Yrotation Xrotation
													End Site
													{
														OFFSET 0.000000 0.000000 0.000000
													}
												}
											}
										}
									}
								}
								JOINT LeftHandRing1
								{
									OFFSET 2.882641 -0.053650 -0.322543
									CHANNELS 3 Zrotation Yrotation Xrotation
									JOINT LeftHandRing2
									{
										OFFSET 5.854543 -0.486203 -1.373841
										CHANNELS 3 Zrotation Yrotation Xrotation
										JOINT LeftHandRing3
										{
											OFFSET 4.350580 0.000000 0.000004
											CHANNELS 3 Zrotation Yrotation Xrotation
											JOINT LeftHandRing4
											{
												OFFSET 2.651324 0.000008 0.000003
												CHANNELS 3 Zrotation Yrotation Xrotation
												JOINT LeftHandRingEnd
												{
													OFFSET 1.936111 0.077685 -0.000070
													CHANNELS 3 Zrotation Yrotation Xrotation
													End Site
													{
														OFFSET 0.000000 0.000000 0.000000
													}
												}
											}
										}
									}
								}
								JOINT LeftHandPinky1
								{
									OFFSET 2.865499 -0.310004 -1.600378
									CHANNELS 3 Zrotation Yrotation Xrotation
									JOINT LeftHandPinky2
									{
										OFFSET 5.087853 -1.331142 -1.771231
										CHANNELS 3 Zrotation Yrotation Xrotation
										JOINT LeftHandPinky3
										{
											OFFSET 3.070975 0.000003 0.000001
											CHANNELS 3 Zrotation Yrotation Xrotation
											JOINT LeftHandPinky4
											{
												OFFSET 1.549668 0.000000 0.000001
												CHANNELS 3 Zrotation Yrotation Xrotation
												JOINT LeftHandPinkyEnd
												{
													OFFSET 1.944895 -0.157802 0.057219
													CHANNELS 3 Zrotation Yrotation Xrotation
													End Site
													{
														OFFSET 0.000000 0.000000 0.000000
													}
												}
											}
										}
									}
								}
							}
						}
					}
				}
				JOINT RightShoulder
				{
					OFFSET -1.380118 23.180307 5.214158
					CHANNELS 3 Zrotation Yrotation Xrotation
					JOINT RightArm
					{
						OFFSET -15.037197 0.000012 -5.545604
						CHANNELS 3 Zrotation Yrotation Xrotation
						JOINT RightForeArm
						{
							OFFSET -28.736639 0.000003 -0.002597
							CHANNELS 3 Zrotation Yrotation Xrotation
							JOINT RightHand
							{
								OFFSET -27.133617 0.000000 0.002613
								CHANNELS 3 Zrotation Yrotation Xrotation
								JOINT RightHandThumb1
								{
									OFFSET -2.274036 -1.383990 3.163127
									CHANNELS 3 Zrotation Yrotation Xrotation
									JOINT RightHandThumb2
									{
										OFFSET -4.011428 -1.827468 1.640914
										CHANNELS 3 Zrotation Yrotation Xrotation
										JOINT RightHandThumb3
										{
											OFFSET -2.794934 -0.000003 -0.000003
											CHANNELS 3 Zrotation Yrotation Xrotation
											JOINT RightHandThumbEnd
											{
												OFFSET -3.183855 0.000003 -0.000000
												CHANNELS 3 Zrotation Yrotation Xrotation
												End Site
												{
													OFFSET 0.000000 0.000000 0.000000
												}
											}
										}
									}
								}
								JOINT RightHandIndex1
								{
									OFFSET -3.253270 -0.520060 2.282866
									CHANNELS 3 Zrotation Yrotation Xrotation
									JOINT RightHandIndex2
									{
										OFFSET -6.341918 0.012473 0.178265
										CHANNELS 3 Zrotation Yrotation Xrotation
										JOINT RightHandIndex3
										{
											OFFSET -3.654875 -0.000008 -0.000001
											CHANNELS 3 Zrotation Yrotation Xrotation
											JOINT RightHandIndex4
											{
												OFFSET -2.327586 0.000000 0.000000
												CHANNELS 3 Zrotation Yrotation Xrotation
												JOINT RightHandIndexEnd
												{
													OFFSET -2.761789 -0.180657 -0.113078
													CHANNELS 3 Zrotation Yrotation Xrotation
													End Site
													{
														OFFSET 0.000000 0.000000 0.000000
													}
												}
											}
										}
									}
								}
								JOINT RightHandMiddle1
								{
									OFFSET -3.168106 0.246593 1.001031
									CHANNELS 3 Zrotation Yrotation Xrotation
									JOINT RightHandMiddle2
									{
										OFFSET -6.180830 -0.258836 -1.000896
										CHANNELS 3 Zrotation Yrotation Xrotation
										JOINT RightHandMiddle3
										{
											OFFSET -4.348905 -0.000000 -0.000000
											CHANNELS 3 Zrotation Yrotation Xrotation
											JOINT RightHandMiddle4
											{
												OFFSET -3.000242 -0.000004 -0.000002
												CHANNELS 3 Zrotation Yrotation Xrotation
												JOINT RightHandMiddleEnd
												{
													OFFSET -2.302518 -0.294372 -0.031706
													CHANNELS 3 Zrotation Yrotation Xrotation
													End Site
													{
														OFFSET 0.000000 0.000000 0.000000
													}
												}
											}
										}
									}
								}
								JOINT RightHandRing1
								{
									OFFSET -2.885694 -0.067953 -0.308858
									CHANNELS 3 Zrotation Yrotation Xrotation
									JOINT RightHandRing2
									{
										OFFSET -5.854197 -0.486132 -1.373732
										CHANNELS 3 Zrotation Yrotation Xrotation
										JOINT RightHandRing3
										{
											OFFSET -4.338814 -0.000004 -0.000000
											CHANNELS 3 Zrotation Yrotation Xrotation
											JOINT RightHandRing4
											{
												OFFSET -2.654906 -0.000004 0.000003
												CHANNELS 3 Zrotation Yrotation Xrotation
												JOINT RightHandRingEnd
												{
													OFFSET -1.933570 0.077524 -0.000052
													CHANNELS 3 Zrotation Yrotation Xrotation
													End Site
													{
														OFFSET 0.000000 0.000000 0.000000
													}
												}
											}
										}
									}
								}
								JOINT RightHandPinky1
								{
									OFFSET -2.866430 -0.342798 -1.584145
									CHANNELS 3 Zrotation Yrotation Xrotation
									JOINT RightHandPinky2
									{
										OFFSET -5.091370 -1.332054 -1.772385
										CHANNELS 3 Zrotation Yrotation Xrotation
										JOINT RightHandPinky3
										{
											OFFSET -3.062667 -0.000007 0.000000
											CHANNELS 3 Zrotation Yrotation Xrotation
											JOINT RightHandPinky4
											{
												OFFSET -1.546526 0.000005 -0.000002
												CHANNELS 3 Zrotation Yrotation Xrotation
												JOINT RightHandPinkyEnd
												{
													OFFSET -1.945122 -0.157722 0.057211
													CHANNELS 3 Zrotation Yrotation Xrotation
													End Site
													{
														OFFSET 0.000000 0.000000 0.000000
													}
												}
											}
										}
									}
								}
							}
						}
					}
				}
			}
		}
	}
	JOINT LeftLeg
	{
		OFFSET 10.043214 -8.434526 2.595655
		CHANNELS 3 Zrotation Yrotation Xrotation
		JOINT LeftShin
		{
			OFFSET -0.000002 -43.221752 -0.802913
			CHANNELS 3 Zrotation Yrotation Xrotation
			JOINT LeftFoot
			{
				OFFSET 0.000001 -42.155094 -3.481523
				CHANNELS 3 Zrotation Yrotation Xrotation
				JOINT LeftToeBase
				{
					OFFSET 0.000000 -5.059475 13.231529
					CHANNELS 3 Zrotation Yrotation Xrotation
					JOINT LeftToeEnd
					{
						OFFSET -0.009606 -1.647616 6.513017
						CHANNELS 3 Zrotation Yrotation Xrotation
						End Site
						{
							OFFSET 0.000000 0.000000 0.000000
						}
					}
				}
			}
		}
	}
	JOINT RightLeg
	{
		OFFSET -10.047277 -8.295259 2.620317
		CHANNELS 3 Zrotation Yrotation Xrotation
		JOINT RightShin
		{
			OFFSET 0.000001 -43.362209 -0.805556
			CHANNELS 3 Zrotation Yrotation Xrotation
			JOINT RightFoot
			{
				OFFSET 0.000002 -42.117393 -3.478398
				CHANNELS 3 Zrotation Yrotation Xrotation
				JOINT RightToeBase
				{
					OFFSET -0.000001 -5.079609 13.284196
					CHANNELS 3 Zrotation Yrotation Xrotation
					JOINT RightToeEnd
					{
						OFFSET 0.009532 -1.634383 6.460591
						CHANNELS 3 Zrotation Yrotation Xrotation
						End Site
						{
							OFFSET 0.000000 0.000000 0.000000
						}
					}
				}
			}
		}
	}
}
MOTION
Frames: 4
Frame Time: 0.033333
5.264033 99.813797 -0.028591 1.286177 0.129696 1.681412 -0.266851 -0.388812 -1.939967 -0.838920 -0.725954 -5.598533 -1.229881 -2.871220 9.731752 2.711801 0.419769 18.166195 -0.524782 -1.275647 -3.723277 1.473138 -1.422951 -2.997603 0.000077 -0.000023 0.000006 0.012593 -0.085731 -0.042754 0.720469 -3.815922 -10.707251 -0.703834 3.660366 -10.707604 -20.034727 -1.521567 17.316019 -40.227627 -7.387216 28.122112 -0.122615 -41.843616 0.000155 -1.756303 5.034191 -10.381061 -5.882101 9.861278 0.702588 -10.936859 -0.360575 7.156198 0.000001 8.774814 -0.000002 -15.914483 18.259974 6.266366 -1.844031 2.498502 -2.507276 -10.163589 4.678940 4.621103 -20.975996 -0.000005 0.000003 -21.226254 2.451694 -3.593991 0.000001 -0.000005 -0.000000 -1.362680 2.240796 -0.746322 -21.334894 0.584908 3.008320 -13.821195 -0.000003 0.000001 -23.887131 -0.249078 -0.839480 -60.561958 2.452482 -1.122745 -0.294024 1.679686 0.833255 -14.218192 0.093214 1.300576 -34.212006 -0.287564 0.967169 -20.033178 0.964535 1.212842 0.000000 0.000000 0.000001 -3.440385 0.788233 0.501653 -15.928167 -3.167306 2.999706 -6.338817 -0.000001 0.000000 -18.123413 3.648175 -4.905660 -0.000004 0.000000 -0.000000 23.900564 2.676528 18.059996 45.464188 5.642677 23.713146 -0.792388 35.777843 -0.347329 -7.678496 -4.019487 -2.849213 2.243540 -5.255033 -3.180155 14.282877 -0.826592 6.952496 -0.000003 -12.690590 -0.000002 15.720216 -17.856216 3.097240 1.665665 -1.955920 -2.878296 4.727793 -4.170583 4.993917 11.020513 0.000004 -0.000001 12.109031 -3.735708 -2.866780 -0.000000 -0.000000 -0.000001 1.291984 -1.928546 -1.498085 14.800111 0.567469 3.865604 14.242553 -1.341733 -6.660645 19.631941 0.143927 -0.648243 50.126549 -0.724440 -6.413549 0.353028 -1.511150 -0.031940 20.222771 3.684308 2.316629 18.787245 0.000006 0.000000 10.751613 -0.479866 1.397902 0.000001 0.000000 0.000001 3.273804 0.305948 -0.580109 21.486794 11.830360 2.266129 8.162918 0.000002 0.000000 18.399054 -3.798977 -4.940567 0.000002 -0.000000 -0.000001 6.609139 19.139772 -1.362560 -0.056155 -0.464840 4.161930 -10.598886 8.215561 -1.972669 1.629401 -1.916677 0.164164 0.000000 0.000001 0.000002 -7.318062 -30.596275 -2.005485 0.091011 -0.029754 11.384584 10.648149 -14.038298 -8.589750 -1.435688 0.943714 -0.120757 0.000000 0.000000 -0.000001 
5.046497 99.908264 -0.157139 1.350156 0.565270 1.799631 -0.259315 -0.421617 -1.771904 -0.807774 -0.606826 -5.570797 -1.284985 -2.874532 9.750896 2.614422 0.567725 17.757278 -0.621432 -1.378225 -3.705069 1.358114 -1.600446 -3.376783 0.000077 -0.000022 0.000006 0.009049 -0.045937 -0.038312 0.718264 -3.779227 -10.694836 -0.706479 3.694847 -10.701881 -19.792252 -1.751148 17.125710 -40.205715 -7.902343 28.169565 0.011045 -41.905380 -0.007751 -1.864169 5.053319 -10.203471 -5.882102 9.861279 0.702590 -10.936860 -0.360574 7.156196 -0.000000 8.774813 -0.000002 -15.950997 18.202990 6.280583 -1.844031 2.498502 -2.507274 -10.163589 4.678939 4.621102 -20.975994 -0.000003 -0.000000 -21.226250 2.451692 -3.593994 -0.000000 -0.000004 0.000001 -1.362681 2.240796 -0.746323 -21.334894 0.584910 3.008318 -13.821194 -0.000002 -0.000001 -23.887131 -0.249081 -0.839484 -60.557129 2.402411 -1.002150 -0.294024 1.679686 0.833253 -14.218194 0.093216 1.300580 -34.211998 -0.287563 0.967167 -20.033176 0.964533 1.212840 0.000000 0.000000 0.000000 -3.440386 0.788232 0.501657 -15.928167 -3.167305 2.999703 -6.338816 -0.000000 -0.000001 -18.123415 3.648178 -4.905661 -0.000005 0.000000 -0.000000 23.424641 2.805325 18.137196 46.227264 5.667083 23.356415 -0.816710 35.731350 -0.345504 -8.837183 -3.564792 -2.422508 2.243541 -5.255033 -3.180153 14.282877 -0.826594 6.952496 -0.000002 -12.690590 -0.000001 15.700348 -17.811522 2.999976 1.665664 -1.955920 -2.878296 4.727793 -4.170584 4.993918 11.020512 0.000003 -0.000001 12.109033 -3.735710 -2.866778 -0.000000 0.000000 0.000000 1.291984 -1.928548 -1.498089 14.800113 0.567467 3.865603 14.242553 -1.341736 -6.660646 19.631937 0.143925 -0.648244 49.927696 -0.614111 -6.385869 0.353029 -1.511149 -0.031940 20.222767 3.684305 2.316628 18.787245 0.000003 -0.000001 10.751610 -0.479867 1.397904 0.000001 -0.000001 -0.000000 3.273804 0.305946 -0.580109 21.486790 11.830362 2.266131 8.162917 0.000002 0.000002 18.399052 -3.798980 -4.940569 0.000002 -0.000000 -0.000002 6.601354 18.661478 -2.032364 -0.057671 -0.447180 4.958169 -10.740666 8.219031 -1.572271 1.626655 -1.946392 -0.062937 -0.000000 0.000000 0.000002 -7.135605 -30.758915 -1.840334 0.085569 -0.102230 10.736115 10.685583 -14.130506 -8.373665 -1.434064 0.947800 -0.298233 -0.000000 -0.000000 -0.000001 
4.885655 100.021156 -0.291848 1.482608 1.294135 1.966483 -0.249391 -0.410464 -1.562746 -0.802441 -0.511395 -5.508513 -1.400300 -2.812772 9.758214 2.543203 0.733663 17.264454 -0.739399 -1.535252 -3.726031 1.232091 -1.893208 -3.926904 0.000077 -0.000023 0.000006 0.010010 -0.030421 -0.020600 0.718163 -3.753200 -10.686133 -0.705773 3.702482 -10.704238 -19.484308 -2.054081 16.854378 -40.122276 -8.859092 28.596029 0.236096 -41.743752 -0.066158 -2.131119 5.139244 -9.782742 -5.882101 9.861279 0.702590 -10.936858 -0.360574 7.156197 0.000000 8.774815 -0.000002 -16.039227 18.183939 6.284046 -1.844030 2.498503 -2.507275 -10.163589 4.678940 4.621102 -20.975996 -0.000004 -0.000000 -21.226254 2.451690 -3.593995 -0.000000 -0.000004 0.000001 -1.362680 2.240797 -0.746320 -21.334887 0.584908 3.008317 -13.821195 -0.000003 0.000001 -23.887133 -0.249079 -0.839483 -60.549042 2.362658 -0.942805 -0.294024 1.679687 0.833254 -14.218192 0.093215 1.300579 -34.212002 -0.287565 0.967168 -20.033178 0.964536 1.212841 -0.000000 -0.000001 0.000001 -3.440386 0.788233 0.501657 -15.928167 -3.167305 2.999702 -6.338816 -0.000001 -0.000001 -18.123415 3.648175 -4.905663 -0.000003 -0.000001 0.000000 22.805464 3.084709 18.259499 47.286304 5.920290 23.062918 -0.923543 35.426666 -0.410150 -10.618542 -2.989768 -2.033950 2.243541 -5.255033 -3.180156 14.282877 -0.826594 6.952495 -0.000003 -12.690590 -0.000001 15.697691 -17.818155 2.883873 1.665665 -1.955919 -2.878298 4.727793 -4.170583 4.993917 11.020513 0.000002 -0.000002 12.109034 -3.735710 -2.866780 -0.000000 -0.000000 -0.000001 1.291986 -1.928550 -1.498090 14.800111 0.567469 3.865603 14.242553 -1.341735 -6.660649 19.631941 0.143925 -0.648245 49.731777 -0.576472 -6.327995 0.353028 -1.511150 -0.031941 20.222767 3.684305 2.316627 18.787245 0.000004 -0.000001 10.751608 -0.479868 1.397902 0.000001 0.000000 0.000000 3.273804 0.305947 -0.580110 21.486790 11.830362 2.266131 8.162916 0.000003 0.000000 18.399050 -3.798978 -4.940567 0.000003 0.000001 -0.000001 6.509819 18.181538 -3.066734 -0.062794 -0.428234 6.193220 -10.865681 8.038801 -1.038985 1.631185 -1.948553 -0.275950 -0.000000 0.000001 0.000002 -7.057467 -31.234556 -1.574018 0.082059 -0.148009 9.883762 10.767165 -14.446932 -8.075301 -1.430470 0.971781 -0.449438 0.000000 0.000000 -0.000001 
4.584466 100.117455 -0.512516 1.705759 2.369878 2.149333 -0.233776 -0.337423 -1.235307 -0.819480 -0.375454 -5.400928 -1.627098 -2.758637 9.757062 2.545929 0.924819 16.593967 -0.915823 -1.864929 -3.757244 1.201256 -2.378346 -4.681913 0.000077 -0.000022 0.000006 0.005503 -0.013417 -0.020265 0.716992 -3.726460 -10.691612 -0.714946 3.711323 -10.719653 -19.025591 -2.425787 16.557913 -40.148102 -10.432151 29.050354 0.430255 -41.396225 -0.140495 -2.548459 5.301632 -9.185767 -5.882101 9.861279 0.702590 -10.936858 -0.360574 7.156200 0.000000 8.774812 -0.000002 -16.083115 18.145514 6.267962 -1.844031 2.498503 -2.507275 -10.163589 4.678941 4.621104 -20.975994 -0.000002 0.000002 -21.226250 2.451692 -3.593994 0.000001 -0.000004 0.000001 -1.362679 2.240796 -0.746324 -21.334888 0.584909 3.008322 -13.821194 -0.000003 0.000003 -23.887129 -0.249077 -0.839481 -60.497612 2.336502 -0.900305 -0.294025 1.679686 0.833257 -14.218190 0.093215 1.300581 -34.211998 -0.287562 0.967172 -20.033176 0.964537 1.212843 0.000000 0.000000 0.000001 -3.440386 0.788233 0.501655 -15.928165 -3.167306 2.999706 -6.338816 0.000000 0.000001 -18.123415 3.648175 -4.905662 -0.000005 0.000000 -0.000001 21.841496 3.642700 18.535707 48.862427 6.600259 22.471632 -0.929733 34.689995 -0.453338 -13.229581 -2.346866 -1.225339 2.243540 -5.255032 -3.180152 14.282873 -0.826594 6.952497 -0.000002 -12.690591 0.000001 15.703588 -17.743399 2.748545 1.665666 -1.955921 -2.878296 4.727793 -4.170584 4.993917 11.020509 0.000002 -0.000002 12.109031 -3.735710 -2.866780 0.000000 -0.000000 -0.000002 1.291984 -1.928548 -1.498087 14.800111 0.567467 3.865606 14.242553 -1.341736 -6.660647 19.631933 0.143925 -0.648243 49.518692 -0.553202 -6.243503 0.353030 -1.511150 -0.031941 20.222769 3.684304 2.316628 18.787243 0.000003 0.000002 10.751607 -0.479869 1.397908 0.000001 -0.000001 0.000001 3.273803 0.305945 -0.580110 21.486786 11.830361 2.266131 8.162916 0.000001 0.000001 18.399048 -3.798981 -4.940567 0.000002 -0.000000 -0.000002 6.484616 17.743597 -4.061128 -0.060797 -0.426414 7.482137 -11.068322 7.638185 -0.310964 1.647601 -1.965640 -0.580422 -0.000000 0.000001 0.000002 -6.998353 -32.091167 -1.505644 0.079548 -0.197788 9.470986 10.805676 -14.814938 -8.009855 -1.432247 0.974681 -0.508462 0.000000 0.000001 -0.000001 
